<svg xmlns="http://www.w3.org/2000/svg" width="44" height="44" viewBox="0 0 44 44">
  <g id="Group_8" data-name="Group 8" transform="translate(-289 -769)">
    <g id="Group_7" data-name="Group 7" transform="translate(198 2)">
      <rect id="Rectangle_4" data-name="Rectangle 4" width="44" height="44" rx="8" transform="translate(91 767)" fill="#282828"/>
    </g>
    <path id="Path_146" data-name="Path 146" d="M20.788,6.873A6.691,6.691,0,0,0,22.407,2a6.783,6.783,0,0,0-4.583,2.322A6.37,6.37,0,0,0,16.3,9.042a5.637,5.637,0,0,0,4.491-2.169Zm3.85,11.365a6.889,6.889,0,0,1,3.3-5.82,7.119,7.119,0,0,0-5.591-3.055c-2.383-.244-4.583,1.39-5.851,1.39s-3.055-1.36-5.041-1.329A7.516,7.516,0,0,0,5.13,13.289c-2.689,4.674-.687,11.625,2,15.4,1.222,1.848,2.75,3.941,4.766,3.865S14.57,31.3,16.908,31.3s3.055,1.253,5.041,1.207,3.391-1.894,4.674-3.743a16.8,16.8,0,0,0,2.108-4.354,6.737,6.737,0,0,1-4.094-6.171Z" transform="translate(294.706 771.723)" fill="#f2eee3"/>
  </g>
</svg>
