<svg xmlns="http://www.w3.org/2000/svg" width="43.542" height="43.542" viewBox="0 0 43.542 43.542">
  <path id="Path_145" data-name="Path 145" d="M163.378,128a8.178,8.178,0,0,1,8.164,8.164v27.214a8.178,8.178,0,0,1-8.164,8.164h-5.329V154.675h5.641l.85-6.577h-6.492v-4.2a3.634,3.634,0,0,1,.666-2.381,3.306,3.306,0,0,1,2.594-.794l3.458-.028v-5.868a38,38,0,0,0-5.046-.255,8.421,8.421,0,0,0-6.166,2.268,8.571,8.571,0,0,0-2.31,6.407V148.1h-5.67v6.577h5.67v16.867H136.164A8.178,8.178,0,0,1,128,163.378V136.164A8.178,8.178,0,0,1,136.164,128Z" transform="translate(-128 -128)" fill="#282828"/>
</svg>
