<svg xmlns="http://www.w3.org/2000/svg" width="44" height="44" viewBox="0 0 44 44">
  <g id="Group_6" data-name="Group 6" transform="translate(-91 -767)">
    <rect id="Rectangle_4" data-name="Rectangle 4" width="44" height="44" rx="8" transform="translate(91 767)" fill="#282828"/>
    <g id="Group_5" data-name="Group 5" transform="translate(101.634 777.402)">
      <path id="Union_1" data-name="Union 1" d="M-2898.4-867.6a11.6,11.6,0,0,1-1.238-5.207,11.6,11.6,0,0,1,1.238-5.206,11.588,11.588,0,0,1,10.36-6.391,11.144,11.144,0,0,1,7.758,3.015l-3.273,3.2a6.43,6.43,0,0,0-4.485-1.727,7.011,7.011,0,0,0-6.61,4.82,7.49,7.49,0,0,0-.374,2.294,7.14,7.14,0,0,0,.386,2.294,6.984,6.984,0,0,0,6.6,4.82,6.866,6.866,0,0,0,4.021-1.16,5.667,5.667,0,0,0,2.371-3.763h-6.392v-4.3h10.889a9.937,9.937,0,0,1,.245,2.371,11.339,11.339,0,0,1-3.453,8.531,11.052,11.052,0,0,1-7.681,2.809A11.588,11.588,0,0,1-2898.4-867.6Z" transform="translate(2899.634 884.402)" fill="#f2eee3"/>
    </g>
  </g>
</svg>
